<svg width="17" height="16" viewBox="0 0 17 16" fill="none" xmlns="http://www.w3.org/2000/svg">
<path d="M16.2273 0.535531C16.0146 0.383562 15.7106 0.353168 15.4675 0.505137L1.36473 8.52911C1.12158 8.65069 0.969606 8.92423 1 9.19777C1 9.47132 1.18236 9.71447 1.42551 9.83604L6.10616 11.7813V15.2158C6.10616 15.4893 6.22774 15.7324 6.47089 15.8844C6.59247 15.9148 6.71404 15.9452 6.80522 15.9452C6.9268 15.9452 7.07877 15.9148 7.20034 15.854L10.5741 13.6657L13.5527 14.9422C13.6438 14.9726 13.735 15.003 13.8566 15.003C13.9782 15.003 14.0997 14.9422 14.1909 14.8814C14.4037 14.7902 14.5253 14.5775 14.5557 14.3647L16.5009 1.23459C16.592 0.961045 16.4705 0.6875 16.2273 0.535531ZM12.2153 4.03082L6.53168 10.3831L3.37072 9.0458L12.2153 4.03082ZM7.53467 13.8784V12.3891L8.93279 12.997L7.53467 13.8784ZM13.2791 13.2098L7.92979 10.9606L14.738 3.39255L13.2791 13.2098Z" fill="#48B1EE"/>
</svg>
