<svg width="12" height="13" viewBox="0 0 12 13" fill="none" xmlns="http://www.w3.org/2000/svg">
<path d="M5.70967 8.58807C5.46402 8.83373 5.08436 8.83373 4.8387 8.58807L3.40941 7.15878C3.16375 6.91312 3.16375 6.53346 3.40941 6.2878C3.65507 6.04214 4.03472 6.04214 4.28038 6.2878L5.28535 7.27044L7.69729 4.85851C7.94295 4.61285 8.3226 4.61285 8.56826 4.85851C8.81392 5.10417 8.81392 5.48382 8.56826 5.72948L5.70967 8.58807ZM11.7172 6.71212C11.7172 9.88336 9.14891 12.4293 6 12.4293C2.82876 12.4293 0.282828 9.88336 0.282828 6.71212C0.282828 3.56321 2.82876 0.99495 6 0.99495C9.14891 0.99495 11.7172 3.56321 11.7172 6.71212ZM6 2.06692C3.43174 2.06692 1.3548 4.16619 1.3548 6.71212C1.3548 9.28038 3.43174 11.3573 6 11.3573C8.54593 11.3573 10.6452 9.28038 10.6452 6.71212C10.6452 4.16619 8.54593 2.06692 6 2.06692Z" fill="#5B216D"/>
</svg>
