<svg width="30" height="22" viewBox="0 0 30 22" fill="none" xmlns="http://www.w3.org/2000/svg">
<path d="M14.2031 7.20312C14.625 6.78125 15.3281 6.78125 15.75 7.20312L19.5 10.9531C19.9688 11.4219 19.9688 12.125 19.5 12.5469C19.0781 13.0156 18.375 13.0156 17.9531 12.5469L16.125 10.7188V17C16.125 17.6562 15.6094 18.125 15 18.125C14.3438 18.125 13.875 17.6562 13.875 17V10.7188L12 12.5469C11.5781 13.0156 10.875 13.0156 10.4531 12.5469C9.98438 12.125 9.98438 11.4219 10.4531 10.9531L14.2031 7.20312ZM6.75 21.5C3 21.5 0 18.5 0 14.75C0 11.8438 1.875 9.3125 4.5 8.42188V8.375C4.5 4.0625 8.01562 0.5 12.375 0.5C14.7188 0.5 16.875 1.57812 18.3281 3.26562C19.0312 2.9375 19.7812 2.75 20.625 2.75C23.7188 2.75 26.25 5.28125 26.25 8.375C26.25 8.70312 26.2031 8.98438 26.1562 9.3125C28.4062 10.2969 30 12.5469 30 15.125C30 18.5469 27.3281 21.3125 24 21.5H6.75ZM12.375 2.75C9.23438 2.75 6.75 5.28125 6.75 8.375V10.0156L5.20312 10.5312C3.46875 11.1406 2.25 12.8281 2.25 14.75C2.25 17.2344 4.21875 19.25 6.75 19.25H23.7188H23.8594C26.0156 19.1562 27.75 17.3281 27.75 15.125C27.75 13.4375 26.7188 11.9844 25.2656 11.375L23.6719 10.6719L23.9531 8.9375C23.9531 8.75 24 8.5625 24 8.375C24 6.54688 22.4531 5 20.625 5C20.1094 5 19.6406 5.14062 19.2188 5.32812L17.7188 5.98438L16.5938 4.71875C15.5625 3.54688 14.0625 2.75 12.3281 2.75H12.375Z" fill="#F1C5FF"/>
</svg>
