<svg width="24" height="19" viewBox="0 0 24 19" fill="none" xmlns="http://www.w3.org/2000/svg">
<path d="M23.2266 16.7656C23.2266 16.7266 22.3672 15.7891 21.7813 14.6172C22.8359 13.5625 23.5 12.2344 23.5 10.75C23.5 7.625 20.4922 5.04688 16.5859 4.61719C15.375 2.35156 12.4844 0.75 9.12501 0.75C4.63282 0.75 1.00001 3.5625 1.00001 7C1.00001 8.44531 1.62501 9.77344 2.71876 10.8672C2.09376 12.0391 1.23438 12.9766 1.23438 13.0156C1.00001 13.25 0.921882 13.6406 1.03907 13.9922C1.19532 14.3047 1.50782 14.5391 1.89844 14.5391C3.96876 14.5391 5.64844 13.7188 6.78126 13.0156C7.13282 13.0938 7.48438 13.1328 7.87501 13.2109C9.08594 15.4375 11.9766 17.0391 15.375 17.0391C16.1563 17.0391 16.9375 16.9219 17.6797 16.7656C18.8125 17.4688 20.4922 18.2891 22.6016 18.2891C22.9531 18.2891 23.2656 18.0547 23.4219 17.7422C23.5391 17.3906 23.5 17 23.2266 16.7656ZM7.05469 11.7656L6.54688 11.6484L6.07813 11.9609C5.29688 12.4688 4.12501 13.0547 2.67969 13.2109C2.99219 12.7812 3.46094 12.1562 3.81251 11.4141L4.24219 10.5938L3.57813 9.96875C2.95313 9.34375 2.25001 8.36719 2.25001 7C2.25001 4.26562 5.33594 2 9.12501 2C12.9141 2 16 4.26562 16 7C16 9.77344 12.9141 12 9.12501 12C8.42188 12 7.71876 11.9219 7.05469 11.7656ZM18.3828 15.7109L17.9141 15.3984L17.4063 15.5547C16.7422 15.7109 16.0391 15.7891 15.375 15.7891C12.7969 15.7891 10.6094 14.7734 9.39844 13.25C13.7344 13.1328 17.25 10.3984 17.25 7C17.25 6.64844 17.1719 6.29688 17.0938 5.94531C20.0625 6.49219 22.25 8.44531 22.25 10.75C22.25 12.1172 21.5078 13.0938 20.8828 13.7188L20.2578 14.3438L20.6484 15.1641C21 15.9062 21.4688 16.5312 21.7813 16.9609C20.3359 16.8047 19.1641 16.2188 18.3828 15.7109Z" fill="#CDD7E1"/>
</svg>
