<svg width="21" height="19" viewBox="0 0 21 19" fill="none" xmlns="http://www.w3.org/2000/svg">
<path d="M11 2C15.8047 2 19.75 5.08594 19.75 8.875C19.75 12.6641 15.8047 15.75 11 15.75C9.86719 15.75 8.77344 15.5938 7.71875 15.2812L7.13281 15.0859L6.625 15.4375C5.72656 16.0625 4.35938 16.8047 2.64063 17C3.10938 16.4141 3.77344 15.3984 4.20313 14.2656L4.47656 13.5234L3.96875 12.9766C2.83594 11.7656 2.25 10.3594 2.25 8.875C2.25 5.08594 6.15625 2 11 2ZM11 0.75C5.45313 0.75 1 4.42188 1 8.875C1 10.75 1.74219 12.4688 3.03125 13.8359C2.48438 15.3594 1.27344 16.6875 1.23438 16.6875C0.960939 16.9609 0.921877 17.3516 1.03906 17.7031C1.19531 18.0547 1.54688 18.25 1.89844 18.25C4.32031 18.25 6.19531 17.2734 7.36719 16.4531C8.5 16.8047 9.71094 17 11 17C16.5078 17 21 13.3672 21 8.875C21 4.42188 16.5078 0.75 11 0.75Z" fill="#CDD7E1"/>
</svg>
