<svg width="10" height="11" viewBox="0 0 10 11" fill="none" xmlns="http://www.w3.org/2000/svg">
<path d="M7.14264 2.43548C7.23589 2.43548 7.32913 2.39819 7.38508 2.30494L8.0005 1.40978C8.0378 1.37248 8.0378 1.31653 8.0378 1.26059C8.0378 1.09274 7.90726 0.943549 7.73941 0.943549C7.64617 0.943549 7.55292 0.999496 7.49698 1.09274L6.9002 1.9879C6.8629 2.0252 6.84425 2.08115 6.84425 2.1371C6.84425 2.30494 6.9748 2.43548 7.14264 2.43548ZM4.53175 2.30494C4.5877 2.39819 4.68095 2.43548 4.77419 2.43548C4.94204 2.43548 5.07258 2.30494 5.07258 2.1371C5.07258 2.08115 5.05393 2.0252 5.01663 1.9879L4.41986 1.09274C4.36391 0.999496 4.27067 0.943549 4.15877 0.943549C3.99093 0.943549 3.86038 1.09274 3.86038 1.26059C3.86038 1.31653 3.87903 1.37248 3.89768 1.40978L4.53175 2.30494ZM5.96774 2.43548C6.11694 2.43548 6.26613 2.30494 6.26613 2.1371V0.943549C6.26613 0.794355 6.11694 0.645162 5.96774 0.645162C5.7999 0.645162 5.66935 0.794355 5.66935 0.943549V2.1371C5.66935 2.30494 5.7999 2.43548 5.96774 2.43548ZM8.1497 3.03226C7.98185 3.03226 7.83266 3.06956 7.68347 3.1255C7.88861 3.36794 8.0378 3.62903 8.1124 3.94607C8.1497 3.94607 8.1497 3.92742 8.1497 3.92742C8.42944 3.92742 8.65323 4.15121 8.65323 4.4123V6.96724C8.65323 7.73185 8.28024 8.42188 7.70212 8.85081C7.40373 9.39163 6.95615 9.85786 6.43397 10.1935C8.1497 10.1562 9.54839 8.72026 9.54839 6.96724V4.43095C9.54839 3.66633 8.91431 3.03226 8.1497 3.03226ZM7.60887 6.96724V4.4123C7.60887 3.66633 6.9748 3.03226 6.21018 3.03226C5.7253 3.03226 5.29637 3.29335 5.03528 3.66633L4.08417 2.69657C3.84173 2.45413 3.5247 2.32359 3.18901 2.32359C2.76008 2.32359 2.36845 2.54738 2.16331 2.88306C2.14466 2.88306 2.12601 2.88306 2.10736 2.88306C1.39869 2.88306 0.839214 3.44254 0.839214 4.13256C0.839214 4.16986 0.839214 4.18851 0.839214 4.20716C0.484879 4.43095 0.261089 4.82258 0.261089 5.25151C0.261089 5.41936 0.298387 5.5872 0.372984 5.73639C0.130544 5.96018 0 6.27722 0 6.63155C0 6.96724 0.130544 7.28427 0.354335 7.52671C1.93952 9.1119 2.76008 10.1935 4.40121 10.1935C6.17288 10.1935 7.60887 8.75756 7.60887 6.96724ZM4.40121 9.29839C3.17036 9.29839 2.59224 8.49647 0.988407 6.89264C0.91381 6.81804 0.895161 6.7248 0.895161 6.63155C0.895161 6.44506 1.04435 6.27722 1.2495 6.27722C1.34274 6.27722 1.43599 6.31452 1.51058 6.38911L2.46169 7.34022L2.77873 7.02319L1.26815 5.5126C1.19355 5.438 1.15625 5.34476 1.15625 5.25151C1.15625 5.06502 1.32409 4.87853 1.52923 4.87853C1.62248 4.87853 1.71573 4.91583 1.79032 4.99042L3.30091 6.50101L3.61794 6.18397L1.82762 4.39365C1.75302 4.31905 1.71573 4.22581 1.71573 4.13256C1.71573 3.94607 1.88357 3.77823 2.08871 3.77823C2.18196 3.77823 2.2752 3.81552 2.33115 3.89012L4.12147 5.66179L4.43851 5.34476L2.92792 3.83417C2.87198 3.77823 2.83468 3.68498 2.83468 3.59173C2.83468 3.38659 2.98387 3.21875 3.18901 3.21875C3.28226 3.21875 3.3755 3.25605 3.4501 3.33065L5.74395 5.60585V4.4123C5.74395 4.15121 5.94909 3.92742 6.21018 3.92742C6.48992 3.92742 6.71371 4.15121 6.71371 4.4123V6.96724C6.71371 8.23538 5.70665 9.29839 4.40121 9.29839Z" fill="white"/>
</svg>
