<svg width="21" height="21" viewBox="0 0 21 21" fill="none" xmlns="http://www.w3.org/2000/svg">
<path d="M20.0234 1.47648L16.1172 0.538984C15.5312 0.421796 14.9453 0.695234 14.7109 1.24211L12.875 5.49992C12.6797 6.00773 12.7969 6.59367 13.2266 6.90617L15.3359 8.62492C14.0078 11.3593 11.8203 13.5468 9.08594 14.8749L7.36719 12.7655C7.05469 12.3359 6.46875 12.2187 5.96094 12.414L1.70312 14.2499C1.19531 14.4843 0.882812 15.0702 0.999999 15.6171L1.9375 19.5624C2.05469 20.1093 2.52344 20.4999 3.10937 20.4999C12.9531 20.4999 21 12.5312 21 2.64836C21 2.06242 20.6094 1.59367 20.0234 1.47648ZM3.14844 19.2499L2.25 15.3827L6.42969 13.5859L8.77344 16.4374C12.7969 14.5234 14.9844 12.3359 16.8984 8.31242L14.0469 5.96867L15.8437 1.78898L19.7109 2.68742C19.7109 11.828 12.2891 19.2499 3.14844 19.2499Z" fill="#CDD7E1"/>
</svg>
