<svg width="18" height="20" viewBox="0 0 18 20" fill="none" xmlns="http://www.w3.org/2000/svg">
<path d="M12.0922 11.25C10.9718 11.25 10.4696 11.875 8.65385 11.875C6.79945 11.875 6.29722 11.25 5.17685 11.25C2.31799 11.25 0 13.6328 0 16.5234V18.125C0 19.1797 0.811298 20 1.8544 20H15.4533C16.4578 20 17.3077 19.1797 17.3077 18.125V16.5234C17.3077 13.6328 14.9511 11.25 12.0922 11.25ZM16.0714 18.125C16.0714 18.4766 15.7624 18.75 15.4533 18.75H1.8544C1.5067 18.75 1.23626 18.4766 1.23626 18.125V16.5234C1.23626 14.2969 2.97476 12.5 5.17685 12.5C5.94952 12.5 6.68355 13.125 8.65385 13.125C10.5855 13.125 11.3582 12.5 12.0922 12.5C14.2943 12.5 16.0714 14.2969 16.0714 16.5234V18.125ZM8.65385 10C11.3582 10 13.5989 7.77344 13.5989 5C13.5989 2.26562 11.3582 0 8.65385 0C5.91089 0 3.70879 2.26562 3.70879 5C3.70879 7.77344 5.91089 10 8.65385 10ZM8.65385 1.25C10.6628 1.25 12.3626 2.96875 12.3626 5C12.3626 7.07031 10.6628 8.75 8.65385 8.75C6.60628 8.75 4.94505 7.07031 4.94505 5C4.94505 2.96875 6.60628 1.25 8.65385 1.25Z" fill="#CDD7E1"/>
</svg>
