<svg width="12" height="12" viewBox="0 0 12 12" fill="none" xmlns="http://www.w3.org/2000/svg">
<path d="M8.49175 7.52324C7.58508 7.52324 7.43028 7.50112 6.87744 7.67804C6.5015 7.81072 6.08133 7.87706 5.66117 7.87706C5.21889 7.87706 4.79873 7.81072 4.42279 7.67804C3.86994 7.50112 3.71514 7.52324 2.83058 7.52324C1.26049 7.52324 0 8.80585 0 10.3538V10.7076C0 11.1057 0.309595 11.4153 0.707646 11.4153H10.6147C10.9906 11.4153 11.3223 11.1057 11.3223 10.7076V10.3538C11.3223 8.80585 10.0397 7.52324 8.49175 7.52324ZM10.2609 10.3538H1.06147C1.06147 9.88943 1.23838 9.44715 1.57009 9.11544C1.9018 8.78373 2.34408 8.58471 2.83058 8.58471C3.73726 8.58471 3.73726 8.56259 4.06897 8.69528C4.57759 8.85008 5.10832 8.93853 5.66117 8.93853C6.1919 8.93853 6.72264 8.85008 7.23126 8.69528C7.58508 8.56259 7.56297 8.58471 8.49175 8.58471C9.46477 8.58471 10.2609 9.38081 10.2609 10.3538ZM5.66117 7.16942C7.6072 7.16942 9.1994 5.59933 9.1994 3.63118C9.1994 1.68516 7.6072 0.0929542 5.66117 0.0929542C3.69303 0.0929542 2.12294 1.68516 2.12294 3.63118C2.12294 5.59933 3.69303 7.16942 5.66117 7.16942ZM5.66117 1.15442C7.01012 1.15442 8.13793 2.28223 8.13793 3.63118C8.13793 5.00225 7.01012 6.10795 5.66117 6.10795C4.2901 6.10795 3.18441 5.00225 3.18441 3.63118C3.18441 2.28223 4.2901 1.15442 5.66117 1.15442Z" fill="white"/>
</svg>
